Pitch,Velocity,Position,Length
66,85,2.0,4.048
78,85,2.0,4.048
76,86,6.0,2.059
73,89,8.0,6.946
75,99,15.0,1.048
76,71,16.0,5.996
80,96,22.0,1.988
78,72,24.0,3.584
71,85,28.0,3.5
78,73,32.0,2.917
81,96,35.0,1.046
80,88,36.0,1.055
73,98,37.0,6.942
83,29,40.0,3.75
73,89,44.0,0.438
71,90,48.0,4.136
68,110,52.0,1.93
76,101,54.0,1.919
75,103,56.0,0.778
71,85,56.75,4.605
